<svg width="116" height="32" viewBox="0 0 116 32" fill="none" xmlns="http://www.w3.org/2000/svg">
<path d="M1.09176 26.1426V13.4053H3.45726V26.1426H1.09176ZM5.64078 26.1426V13.4053H7.55137L14.9208 22.0485V13.4053H17.2863V26.1426H15.3757L8.00628 17.4994V26.1426H5.64078ZM24.9244 26.5065C20.9212 26.5065 19.2836 24.323 18.7377 23.6861L20.7393 22.4124C21.2851 23.0492 22.6499 24.323 24.9244 24.323C26.562 24.323 28.0177 23.8681 28.0177 22.6853C28.0177 20.1379 19.1016 21.7755 19.1016 17.0445C19.1016 15.043 20.9212 13.0414 24.3785 13.0414C27.4718 13.0414 29.3824 14.679 30.1102 16.4987L27.7448 16.9536C27.2899 16.0438 26.1071 15.2249 24.2875 15.2249C22.3769 15.2249 21.4671 16.1347 21.4671 17.0445C21.4671 19.501 30.3832 17.7724 30.3832 22.6853C30.3832 25.4147 28.0177 26.5065 24.9244 26.5065ZM35.6721 26.1426V15.5889H31.1231V13.4053H42.5866V15.5889H38.0376V26.1426H35.6721ZM41.3186 26.1426L45.6857 13.4053H51.1445L55.5115 26.1426H53.0551L51.6904 22.1394L44.7759 23.3222L43.7751 26.1426H41.3186ZM45.5037 21.0477L50.9625 20.1379L49.4159 15.5889H47.4143L45.5037 21.0477ZM62.3351 26.5065C57.7861 26.5065 55.3296 23.3222 55.3296 19.7739C55.3296 16.2257 57.7861 13.0414 62.3351 13.0414C66.0653 13.0414 68.3398 15.2249 68.7947 17.1355L66.4292 17.4085C66.0653 16.2257 64.3366 15.2249 62.3351 15.2249C59.6057 15.2249 57.6951 17.2265 57.6951 19.7739C57.6951 22.3214 59.6057 24.323 62.3351 24.323C65.0645 24.323 66.6112 22.7763 66.6112 22.7763V21.3206H63.4268V19.2281H68.7947V26.1426H66.6112V25.2328C66.6112 25.2328 64.9735 26.5065 62.3351 26.5065ZM70.6065 26.1426V13.4053H82.4339V17.5904C82.4339 19.2827 81.3604 20.7019 79.5044 21.3024L82.4339 26.1426H79.7045L76.9933 21.6845L72.972 22.0485V26.1426H70.6065ZM72.972 19.8649L77.9759 19.41C78.9767 19.319 80.0684 18.8641 80.0684 17.4994V15.5889H72.972V19.8649ZM83.3437 26.1426L87.7108 13.4053H93.1696L97.5367 26.1426H95.0802L93.7155 22.1394L86.801 23.3222L85.8002 26.1426H83.3437ZM87.5288 21.0477L92.9876 20.1379L91.441 15.5889H89.4394L87.5288 21.0477ZM98.4387 26.1426L99.9853 13.4053H102.533L106.627 22.0485L110.721 13.4053H113.268L114.815 26.1426H112.45L111.358 17.0445L108.083 23.959H105.171L101.896 17.0445L100.804 26.1426H98.4387Z" fill="white" fill-opacity="0.45"/>
<g filter="url(#filter0_f_220_9)">
<circle cx="57.6209" cy="14.9334" r="3.79085" fill="#FD3C2A" fill-opacity="0.45"/>
</g>
<circle cx="57.6209" cy="14.9331" r="3.03268" fill="#FD3C2A" fill-opacity="0.45"/>
<circle cx="24.2614" cy="19.4835" r="2.27451" fill="white" fill-opacity="0.45"/>
<defs>
<filter id="filter0_f_220_9" x="42.685" y="-0.00251961" width="29.8719" height="29.8722" filterUnits="userSpaceOnUse" color-interpolation-filters="sRGB">
<feFlood flood-opacity="0" result="BackgroundImageFix"/>
<feBlend mode="normal" in="SourceGraphic" in2="BackgroundImageFix" result="shape"/>
<feGaussianBlur stdDeviation="5.57255" result="effect1_foregroundBlur_220_9"/>
</filter>
</defs>
</svg>
